<?xml version="1.0" encoding="UTF-8" standalone="no"?>
<svg
   width="115.009"
   height="115"
   viewBox="0 0 115.009 115"
   fill="none"
   version="1.1"
   id="svg11"
   sodipodi:docname="logo-mpi.svg"
   inkscape:version="1.4.2 (f4327f4, 2025-05-13)"
   xmlns:inkscape="http://www.inkscape.org/namespaces/inkscape"
   xmlns:sodipodi="http://sodipodi.sourceforge.net/DTD/sodipodi-0.dtd"
   xmlns="http://www.w3.org/2000/svg"
   xmlns:svg="http://www.w3.org/2000/svg">
  <sodipodi:namedview
     id="namedview11"
     pagecolor="#ffffff"
     bordercolor="#000000"
     borderopacity="0.25"
     inkscape:showpageshadow="2"
     inkscape:pageopacity="0.0"
     inkscape:pagecheckerboard="0"
     inkscape:deskcolor="#d1d1d1"
     inkscape:zoom="2.8284272"
     inkscape:cx="11.667262"
     inkscape:cy="41.012192"
     inkscape:window-width="1472"
     inkscape:window-height="850"
     inkscape:window-x="-6"
     inkscape:window-y="-6"
     inkscape:window-maximized="1"
     inkscape:current-layer="svg11" />
  <path
     d="m 66.839502,48.575626 c -1.017,0.063 -1.885,0.847 -2.544,1.535 a 13.556,13.556 0 0 0 -1.556,1.988 l -0.125,0.213 c 0,0 -0.441,0.71 -0.632,0.946 -0.807,1.024 -1.991,2.418 -3.426,2.486 -1.388,0.064 -3.088,-0.847 -3.315,-2.273 -0.437,-2.73 2.749,-5.307 5.246,-3.56 0.66,0.463 1.129,1.038 1.625,1.658 0.038,0.046 0.084,0.113 0.14,0.19 l 0.042,0.055 0.125,-0.186 c -0.571,-0.838 -1.133,-1.666 -1.945,-2.314 -0.776,-0.616 -1.626,-0.964 -2.633,-0.788 a 3.737,3.737 0 0 0 -2.159,1.205 c -1.119,1.263 -1.184,3.206 -0.353,4.637 0.827,1.422 2.753,2.78 4.476,2.015 1.407,-0.62 2.451,-2.079 3.241,-3.324 l 0.116,-0.19 c 0,0 0.325,-0.471 0.432,-0.611 0.385,-0.517 0.798,-1.015 1.258,-1.472 1.063,-1.05 2.261,-1.694 3.784,-1.141 1.453,0.525 2.252,1.906 1.931,3.396 -0.348,1.63 -1.95,2.807 -3.631,2.807 -1.439,0 -2.646,-1.453 -3.431,-2.468 l -0.018,-0.022 -0.112,0.176 c 0.845,1.218 1.779,2.532 3.241,3.025 1.978,0.67 4.374,-1.136 4.448,-3.124 0.246,-2.319 -1.639,-5.022 -4.22,-4.864 z"
     fill="url(#xen4ytwv1a)"
     id="path1"
     style="fill:url(#xen4ytwv1a)" />
  <path
     d="m 78.976502,56.708626 a 41410.79,41410.79 0 0 1 -19.784,-20.722 c -0.455,-0.48 -1.184,-0.29 -1.37,0.286 -0.181,0.575 -8.357,26.485 -8.501,26.956 -0.162,0.521 0.302,1.1 0.934,0.96 0.575,-0.127 23.994,-5.248 28.321,-6.203 0.692,-0.154 0.743,-0.91 0.395,-1.277 z m -1.133,-0.014 c -0.056,0.072 -0.158,0.027 -0.274,-0.005 -0.121,-0.036 -5.112,-1.553 -5.92,-1.806 -0.084,-0.023 -0.107,-0.018 -0.135,0.04 -0.023,0.05 -0.051,0.105 -0.069,0.154 -0.019,0.05 -0.01,0.095 0.069,0.123 0.079,0.027 5.948,1.951 5.948,1.951 0,0 0.162,0.05 0.158,0.19 -0.005,0.14 -0.116,0.168 -0.191,0.186 l -26.292,5.76 c -0.121,0.027 -0.256,0.059 -0.293,-0.054 -0.037,-0.113 0.102,-0.222 0.102,-0.222 0,0 6.37,-5.746 6.408,-5.783 0.041,-0.04 0.041,-0.059 0,-0.077 l -0.237,-0.113 a 0.067,0.067 0 0 0 -0.075,0.01 c -0.027,0.022 -6.449,5.637 -6.449,5.637 0,0 -0.055,0.059 -0.143,0.059 a 0.17,0.17 0 0 1 -0.172,-0.168 c 0,-0.036 0.014,-0.086 0.014,-0.086 l 7.916,-25.095 c 0.046,-0.14 0.121,-0.159 0.195,-0.154 0.079,0 0.144,0.1 0.172,0.199 0.051,0.186 2.73,10.397 3.18,12.018 0.051,0.186 0.102,0.258 0.167,0.353 0.065,0.09 0.144,0.213 0.191,0.272 0.074,0.095 0.097,0.122 0.157,0.077 0.047,-0.036 0.038,-0.036 -0.023,-0.258 -0.037,-0.136 -3.203,-12.566 -3.203,-12.566 -0.075,-0.272 0.092,-0.385 0.297,-0.154 0.185,0.213 18.293,19.204 18.321,19.186 l 0.032,0.032 c 0.042,0.045 0.204,0.217 0.144,0.299 z"
     fill="url(#vgmjnx320b)"
     id="path2"
     style="fill:url(#vgmjnx320b)" />
  <path
     d="m 99.989502,35.674626 c -8.055,0 -14.606,6.39 -14.606,14.246 0,7.856 6.551,14.245 14.606,14.245 8.055998,0 14.606998,-6.389 14.606998,-14.245 0,-7.857001 -6.556,-14.246 -14.606998,-14.246 z m 0,28.098 c -7.832,0 -14.198,-6.213 -14.198,-13.852 0,-7.640001 6.37,-13.848 14.198,-13.848 7.827998,0 14.197998,6.213 14.197998,13.848 0,7.634 -6.37,13.852 -14.197998,13.852 z"
     fill="#12120D"
     id="path3"
     style="fill:#ffdb70;fill-opacity:1" />
  <path
     d="m 108.5605,48.829626 c -0.204,-0.413 -0.065,-0.684 -0.125,-0.983 -0.047,-0.222 -0.386,-0.956 -0.599,-1.463 -0.102,-0.24 0.524,-0.18 0.06,-1.041 -0.014,-0.027 0.641,-0.263 -0.014,-0.747 -0.367,-0.272 -0.627,-0.607 -0.826,-0.906 -0.028,-0.04 -0.056,-0.122 0,-0.177001 0.371,-0.321 0.376,-0.782999 -0.023,-1.017999 -0.293,-0.173 -0.623,0 -0.929,0.193999 -0.102,0.064 -0.153,0.104 -0.255,0.064 a 1.846,1.846 0 0 1 -0.251,-0.153999 c 0.376,-0.358 0.45,-0.711 0.422,-0.766 -0.018,-0.04 -0.64,-0.176 -1.411,0.136 l -0.056,-0.027 c 0.316,-0.533999 0.14,-0.909999 0.116,-0.936999 0.576,-0.788 1.152,-1.309 1.714,-1.812 l 0.014,-0.013 c 0.037,-0.036 0.051,-0.077 -0.019,-0.117999 -0.06,-0.036 -0.074,-0.045 -0.149,-0.081 a 13.134,13.134 0 0 0 -6.239998,-1.572 c -7.08,0 -12.837,5.62 -12.837,12.52 0,4 2.08,7.862 5.483,10.257 0.227,0.159 0.385,0.222 0.385,0.222 0.056,0.018 0.116,0.018 0.149,-0.027 l 0.051,-0.063 a 0.192,0.192 0 0 0 0.046,-0.114 c 0,-0.09 -0.134,-0.172 -0.292,-0.403 a 3.703,3.703 0 0 1 -0.664,-2.055 c 0,-0.693 0.218,-1.323 0.631,-1.848 0.511,0.52 1.63,1.476 1.607,2.35 -0.028,0.978 -0.966,0.928 -0.762,1.662 0.126,0.462 0.479,0.272 0.544,0.62 0.106,0.607 0.937,0.992 1.304,0.938 0.088,-0.014 0.163,0.059 0.339,0.23 0.246,0.245 0.859,0.213 1.128,0.164 0.256,-0.046 0.581,0.185 1.119,0.127 0.674,-0.073 0.845,-0.123 1.133,-0.127 0.488,-0.01 3.133998,-0.046 5.018998,0.244 0.325,0.05 0.427,-0.095 0.283,-0.34 -0.682,-1.159 -0.775,-2.141 -0.385,-3.382 0.697,0.045 1.695,0.231 3.013,-0.543 0.469,-0.272 0.729,-0.856 0.706,-1.29 -0.014,-0.282 -0.139,-0.64 -0.065,-0.916 0.102,-0.37 0.176,-0.362 0.283,-0.434 0.502,-0.344 0.14,-0.62 0.061,-0.648 0.153,-0.059 0.32,-0.38 0.144,-0.62 -0.089,-0.095 -0.363,-0.842 -0.047,-1 0.339,-0.169 0.729,-0.24 1.124,-0.409 0.269,-0.108 0.483,-0.416 0.329,-0.824 -0.185,-0.489 -1.211,-2.785 -1.244,-2.852 z m -14.174998,11.148 c -0.097,0.018 -0.413,0.032 -0.343,-0.371 0.042,-0.25 0.32,-0.354 0.464,-0.213 -0.028,0.195 -0.097,0.385 -0.121,0.584 z m 12.103998,-17.09 c 0.168,-0.104001 0.344,-0.144001 0.451,-0.045 0.367,0.353 -0.395,0.548 -0.237,0.82 0.26,0.444 0.673,0.87 1.04,1.14 0.172,0.128 0.195,0.418 -0.46,0.553 -0.659,0.132 -3.287,0.81 -4.675,2.242 -1.737,1.793 -2.841998,4.116 -2.989998,3.799 -0.153,-0.322 -0.502,-0.376 -0.446,-0.466 2.492998,-4.189 6.397998,-7.481 7.316998,-8.043 z m 1.143,2.944 c -0.144,0.398 -1.277,0.756 -1.222,0.475 0.024,-0.127 0,-0.294 0.089,-0.308 0.125,-0.022 0.483,-0.145 1.04,-0.28 0.055,-0.014 0.13,0.018 0.093,0.117 z m -2.87,0.724 c -0.028,-0.163 1.189,-0.561 1.231,-0.443 0.079,0.217 -0.251,0.801 -0.66,0.95 -0.464,0.168 -0.654,0.118 -0.636,0.055 0.033,-0.118 0.093,-0.408 0.065,-0.557 z m -2.823,6.19 c -0.561,0.335 -0.863,-0.303 -0.942,-0.416 a 0.525,0.525 0 0 1 -0.074,-0.43 c 0.037,-0.19 0.069,-0.449 -0.056,-1.264 -0.056,-0.357 0.706,-1.25 0.877,-1.404 0.177,-0.163 0.437,0.082 0.455,0.345 0.033,0.498 -0.255,0.76 -0.548,0.973 -0.362,0.263 -0.427,0.602 -0.362,0.693 0.028,0.036 0.191,0.036 0.26,-0.113 0.219,-0.448 0.836,-0.675 0.934,-0.915 0.153,-0.367 0.041,-0.607 0.027,-0.76 -0.014,-0.136 0.121,-0.168 0.223,-0.155 0.13,0.019 0.191,0.195 0.256,0.363 0.399,1.019 -0.609,1.634 -0.771,1.874 -0.074,0.114 0.158,0.938 -0.279,1.2 v 0.01 z m 0.845,-3.948 c -0.301,0.2 -0.733,-0.073 -0.645,-0.19 a 6.032,6.032 0 0 1 1.597,-1.495 c 0.478,-0.29 0.529,-0.308 0.553,-0.145 0.014,0.1 0.018,0.607 -0.367,1.02 -0.321,0.339 -0.641,0.312 -0.803,0.348 -0.112,0.023 -0.103,0.312 -0.335,0.466 z m -2.679,3.477 c -0.138998,-0.031 -0.189998,-0.29 -0.161998,-0.393 0.06,-0.231 0.426998,-0.707 0.556998,-0.874 0.033,-0.041 0.098,0 0.107,0.045 0.079,0.552 0,1.331 -0.502,1.222 z m 4.476,-10.057 c 0.502,-0.222 0.989,-0.226 1.04,-0.217 0.116,0.014 -0.255,0.652 -0.91,0.928 -0.678,0.286 -1.184,0.335 -1.24,0.308 -0.088,-0.04 0.572,-0.779 1.11,-1.014 z m -11.588998,10.619 c -0.199,-0.226 -0.385,-0.349 -0.408,-0.335 -0.056,0.036 -0.381,0.58 -0.492,1.213 -0.632,-1.181 -0.985,-2.372 -1.04,-3.79 -0.195,-4.804 3.932,-8.671 8.964998,-8.653 1.147,0 2.094,0.213 3.125,0.62 a 3.44,3.44 0 0 0 -0.511,0.901 c -0.005,-0.262 -0.074,-0.461 -0.056,-0.625 0.014,-0.1 -0.715,0.123 -1.355,1.119 -0.149,0.23 -0.242,0.489 -0.302,0.724 -0.014,-0.375 -0.102,-0.665 -0.13,-0.66 -0.065,0.017 -0.802998,0.312 -1.183998,1.19 a 3.023,3.023 0 0 0 -0.153,0.467 c -0.033,-0.267 -0.102,-0.444001 -0.126,-0.444001 -0.046,0 -0.817,0.312001 -1.198,1.209001 a 2.255,2.255 0 0 0 -0.157,0.62 c -0.07,-0.312 -0.191,-0.507 -0.233,-0.457 -0.264,0.33 -0.784,0.475 -1.063,1.304 -0.065,0.195 -0.093,0.39 -0.093,0.57 -0.116,-0.28 -0.274,-0.443 -0.311,-0.434 -0.074,0.013 -0.859,0.743 -0.975,1.476 -0.046,0.29 -0.023,0.557 0.024,0.784 -0.149,-0.236 -0.349,-0.408 -0.432,-0.652 -0.126,0.063 -0.79,0.674 -0.808,1.453 a 2.87,2.87 0 0 0 0.102,0.829 c -0.223,-0.39 -0.534,-0.575 -0.571,-0.553 -0.056,0.037 -0.553,0.557 -0.669,1.5 -0.027,0.221 0,0.43 0.056,0.62 z m 10.307998,-10.809 c 0.394,-0.457 1.068,-0.824001 1.142,-0.779 0.079,0.046 -0.112,0.752 -0.548,1.169 -0.436,0.42 -1.114,0.828 -1.193,0.824 -0.079,-0.005 0.241,-0.802 0.599,-1.214 z m -1.286,1.766 a 3.016,3.016 0 0 0 -0.785,0.86 c -0.074,0.123 -0.265,-0.674 0.237,-1.44 0.306,-0.466 0.914,-0.887 0.9,-0.833001 -0.046,0.186 0.298,0.897001 -0.357,1.409 z m -1.412,1.019 c -0.469,0.684 -0.497,0.448 -1.011998,1.118 -0.028,0.037 -0.037,-0.873001 0.144,-1.272001 0.287998,-0.634 0.793998,-1.004999 0.867998,-1.019 0.074,-0.013 0.26,0.793 0,1.173001 z m -1.540998,1.367 c -0.242,0.413 -0.465,0.318 -0.864,0.902 -0.046,0.063 -0.153,-0.485 0.088,-1.223 0.186,-0.57 0.762,-0.924 0.822,-0.942 0.093,-0.023 0.242,0.77 -0.046,1.264 z m -1.435,1.45 c -0.246,0.525 -0.404,0.538 -0.692,0.864 -0.051,0.055 -0.264,-0.498 -0.055,-1.195 0.167,-0.557 0.547,-0.76 0.733,-0.951 0.074,-0.072 0.274,0.725 0.014,1.277 z m -1.165,0.896 c 0,0.159 -0.019,0.25 -0.065,0.408 -0.177,0.588 -0.53,0.837 -0.725,1.104 -0.079,-0.171 -0.218,-0.42 -0.222,-0.796 0,-0.711 0.441,-1.318 0.719,-1.513 0.107,0 0.293,0.43 0.293,0.797 z m -1.189,1.739 c -0.014,0.829 -0.548,1.313 -0.706,1.467 a 2.384,2.384 0 0 1 -0.306,-1.028 c -0.028,-0.856 0.334,-1.155 0.492,-1.322 0.074,0.245 0.525,0.44 0.52,0.883 z m -1.681,0.851 c 0.246,0.123 0.539,0.467 0.567,1.11 0.028,0.647 -0.446,1.19 -0.632,1.277 -0.13,-0.494 -0.376,-0.598 -0.371,-1.087 0.005,-0.535 0.283,-1.123 0.432,-1.304 z m 1.013,1.703 c 0.636,-0.272 1.332,-0.227 1.36,-0.204 0.028,0.027 -0.204,0.793 -0.822,1.114 -0.617,0.322 -1.318,0.353 -1.379,0.276 -0.037,-0.04 0.204,-0.919 0.841,-1.186 z m -0.047,-0.457 c 0.042,-0.204 0.418,-0.888 0.984,-1.137 0.571,-0.25 1.231,-0.231 1.305,-0.2 0.074,0.032 -0.237,0.757 -0.808,1.024 -0.641,0.299 -0.896,0.122 -1.481,0.308 z m 0.957,-1.599 c 0.027,-0.063 0.492,-0.874 1.035,-1.123 0.538,-0.245 1.193,-0.195 1.235,-0.181 0.046,0.014 -0.246,0.734 -0.864,1.032 -0.613,0.295 -1.43,0.336 -1.406,0.272 z m 1.239,-1.621 c -0.046,-0.032 0.613,-0.874 1.161,-1.119 0.483,-0.217 1.114,-0.172 1.165,-0.135 0.051,0.036 -0.255,0.742 -0.891,1.014 -0.608,0.258 -1.388,0.276 -1.435,0.244 z m 1.486,-1.603 c -0.037,-0.018 0.464,-0.851 1.031,-1.064 0.538,-0.204 1.071998,-0.018 1.234998,-0.01 0.13,0.01 -0.186,0.612 -0.923998,0.88 -0.618,0.221 -1.249,0.24 -1.342,0.194 z m 1.671,-1.544 c 0.01,-0.04 0.561998,-0.797001 1.132998,-0.987 0.543,-0.181 1.203,-0.06 1.272,-0.032 0.07,0.027 -0.385,0.688001 -1.077,0.892001 -0.627,0.181 -1.336998,0.163 -1.327998,0.127 z m 1.685998,-1.336001 c -0.075,-0.05 0.594,-0.773999 1.137,-0.977999 0.53,-0.195 1.105,-0.159001 1.152,-0.136 0.046,0.023 -0.349,0.657 -0.989,0.91 -0.604,0.239999 -1.226,0.254 -1.3,0.203999 z m -9.229998,14.820001 c -3.009,-2.336 -4.81,-5.863 -4.81,-9.545 0,-6.683 5.576,-12.122 12.433,-12.122 2.000998,0 4.006998,0.49 5.766998,1.381 0.037,0.019 0.042,0.064 0.009,0.091 -0.515,0.44 -1.235,1.304 -1.416,1.544 a 10.42,10.42 0 0 0 -4.359998,-0.946 c -5.683,0 -10.302,4.504999 -10.302,10.048 0,2.472 0.859,4.727 2.479,6.539 -0.093,0.208 -0.26,0.67 -0.26,1.281 0,0.503 0.097,1.082 0.46,1.725 v 0.005 z m 0.018,-3.373 h -0.004 c -1.495,-1.711 -2.285,-3.844 -2.285,-6.172 0,-5.32 4.439,-9.650001 9.894,-9.650001 1.439998,0 2.822998,0.295 4.118998,0.875 a 2.55,2.55 0 0 0 -0.567,0.353 9.043,9.043 0 0 0 -3.546998,-0.692999 c -5.154,0 -9.351,4.089999 -9.351,9.115 0,2.183 0.697,4.098 2.066,5.706 -0.079,0.118 -0.19,0.28 -0.315,0.47 z m 0.492,-0.756 c -0.181,-0.167 -0.571,-0.588 -0.608,-1.132 v -0.077 c 0,-0.584 0.265,-1.16 0.33,-1.223 0.065,-0.063 0.743,0.449 0.752,1.187 0.009,0.638 -0.293,1.005 -0.469,1.254 z m 1.115,-0.978 c 0.538,-0.249 1.337,-0.19 1.295,-0.154 -0.042,0.036 -0.255,0.793 -0.859,1.091 -0.603,0.295 -1.003,0.218 -1.221,0.177 0.325,-0.349 0.255,-0.865 0.789,-1.11 z m 0.724,6.303 c -0.093,-0.357 -0.056,-0.851 0.07,-0.982 0.241,-0.113 0.682,-0.159 0.691,-0.023 0.014,0.217 -0.153,0.738 0.042,1.386 -0.042,0.104 -0.645,0.059 -0.798,-0.38 h -0.005 z m 0.042,-1.498 c -0.047,-0.268 0.218,-0.53 0.213,-1.114 -0.004,-0.72 -0.919,-1.708 -1.536,-2.346 0.287,0 0.668,-0.068 1.095,-0.258 0.92,-0.417 1.101,-1.368 1.124,-1.404 0.014,-0.018 -0.204,-0.059 -0.52,-0.063 0.032,-0.018 0.069,-0.032 0.102,-0.05 0.901,-0.471 1.133,-1.485 1.091,-1.508 a 2.326,2.326 0 0 0 -0.552,-0.036 c 0.088,-0.027 0.176,-0.06 0.273,-0.095 0.952,-0.367 1.217,-1.4 1.184,-1.436 -0.014,-0.013 -0.204,-0.05 -0.482,-0.059 a 2.66,2.66 0 0 0 0.26,-0.113 c 0.868,-0.421 1.17,-1.367 1.123,-1.4 -0.018,-0.013 -0.195,-0.044 -0.45,-0.049 0.195,-0.04 0.404,-0.104 0.627,-0.2 0.928,-0.398 1.23,-1.263 1.188,-1.303 -0.018,-0.014 -0.176,-0.06 -0.413,-0.077 0.186,-0.041 0.39,-0.095 0.604,-0.168 0.918998,-0.308 1.289998,-1.164 1.234998,-1.168 -0.126,-0.01 -0.298,-0.068 -0.516,-0.109 0.251,-0.013 0.543,-0.059 0.91,-0.18 0.994,-0.327 1.347,-0.911 1.365,-1.165 0,-0.018 -0.121,-0.068 -0.311,-0.108 0.228,-0.041 0.455,-0.095 0.645,-0.172 0.929,-0.367 1.314,-1.255 1.347,-1.332 a 6.53,6.53 0 0 0 0.539,-0.203 c 0.097,-0.041 0.185,-0.086 0.269,-0.136 0.046,0.031 0.116,0.086 0.227,0.15 0.14,0.085 0.191,0.108 0.121,0.167 -3.157,2.626 -5.524998,5.936 -6.555998,7.548 -0.028,0.045 -0.083,0.037 -0.172,0.032 -1.105,-0.072 -1.731,1.213 -1.239,2.418 -0.065,0.244 -0.59,0.715 -0.627,0.752 -0.042,0.036 -0.144,0.185 0.032,0.167 0.26,-0.022 0.59,-0.425 0.748,-0.607 0.065,0.082 0.311,0.277 0.19,0.39 -0.938,0.901 -1.871,1.385 -1.945,1.417 -0.353,0.168 0.59,0.285 2.187,-1.127 0.093,-0.082 0.204,0.326 0.348,0.502 -0.274,0.883 0.404,2.595 0.297,3.13 -0.018,0.094 -0.074,0.357 -0.395,0.366 -1.587,0.032 -1.741,-0.04 -2.548,0.195 -0.377,0.109 -0.279,0.349 0,0.276 0.311,-0.081 0.636,-0.204 2.349,-0.1 0.418,0.028 0.901,-0.081 0.901,-0.774 0,-0.625 -0.506,-2.495 -0.335,-2.748 0.228,0.167 0.395,0.172 0.479,0.19 -0.024,0.611 0.983998,2.576 0.533,3.663 -0.167,0.403 -0.896,0.371 -2.145,0.254 -2.126,-0.204 -2.818,0.244 -2.86,-0.005 l -0.004,-0.005 z m 4.884,1.34 c -0.826,0.28 -1.151,-0.666 -1.017,-0.865 0.084,-0.122 0.604,0.14 1.012,-0.118 0.312,-0.195 0.487998,0.824 0.005,0.983 z m -3.756,0.588 c -0.116,-0.498 -0.163,-1.363 0.051,-1.557 0.042,-0.036 0.678,-0.127 0.669,0.013 -0.051,0.598 -0.298,1.264 0.167,1.925 0.172,0.249 -0.734,0.285 -0.887,-0.38 z m 1.579,0.571 c -0.223,-0.054 -0.836,-1.005 -0.335,-2.142 0.051,-0.122 0.817,-0.045 0.947,-0.009 0.13,0.036 -0.106,0.928 0.948,1.327 0.106,0.04 0,1.2 -1.556,0.824 z m 6.573998,-3.17 c -0.358,1.2 -0.534,1.68 0,2.98 0.07,0.172 0.125,0.303 -0.033,0.276 -1.072,-0.181 -1.304,-0.353 -4.679998,-0.072 -0.241,0.018 0.079,-0.458 0.042,-0.784 0.307,-0.04 0.798998,-0.176 0.905998,-0.665 0.125,-0.594 -0.297998,-1.028 -0.251,-1.114 0.478,-0.91 -0.033,-1.92 -0.436998,-3.61 -0.037,-0.158 0.056,-0.226 0.126,-0.153 2.167998,2.287 3.551998,2.744 4.293998,2.961 0.075,0.023 0.061,0.104 0.033,0.181 z m 5.544,-6.249 c -0.455,0.39 -1.152,0.422 -1.43,0.675 -0.149,0.131 -0.214,0.335 -0.056,0.702 0.093,0.213 0.153,0.235 -0.158,0.317 -0.506,0.131 -0.576,0.779 -1.216,0.661 -0.256,-0.045 -0.075,0.113 0.018,0.122 0.367,0.032 0.515,-0.068 0.641,-0.185 0.13,-0.118 0.302,-0.33 0.497,-0.403 0.204,-0.077 0.408,-0.068 0.413,0.077 0,0.113 -0.256,0.294 -0.362,0.344 0.13,0.068 0.534,0.267 0.19,0.493 -0.269,0.177 -0.636,-0.068 -0.692,-0.1 -0.079,-0.045 -0.232,-0.022 -0.181,0.037 0.2,0.235 0.734,0.176 0.636,0.299 -0.492,0.643 -0.093,1.023 -0.241,1.67 -0.153,0.657 -1.073,1.02 -1.783,1.142 -2.414,0.426 -4.764,-1.58 -6.142998,-3.088 0.126,-0.286 0.112,-0.662 -0.018,-0.53 -0.121,0.127 -0.098,0.335 -0.386,0.407 -0.552,0.136 -0.794,-0.801 -0.965,-0.964 -0.674,-0.643 -0.938,-1.553 -0.539,-2.346 0.404,-0.801 1.249,-0.643 1.588,-0.154 0.418,0.602 0.223,0.947 0.464,1.128 0.334998,0.253 0.668998,0.027 0.761998,0 0.255,-0.068 0.237,0.588 1.105,0.557 0.933,-0.032 0.826,-1.45 0.961,-1.576 1.198,-1.141 0.585,-2.155 0.367,-2.391 -0.061,-0.063 0.134,-0.48 0.204,-0.498 0.706,-0.15 1.1,-0.589 1.314,-1.055 0,0 1.17,-0.018 1.583,-0.842 0.112,-0.218 0.455,0.212 1.235,-0.385 0.088,-0.068 0.172,-0.037 0.204,0.045 0.502,1.2 0.711,1.53 0.674,2.142 -0.028,0.444 1.216,2.912 1.309,3.124 0.102,0.236 0.116,0.471 0,0.57 z"
     fill="#12120D"
     id="path4"
     style="fill:#ffdb70;fill-opacity:1" />
  <path
     d="m 106.7775,47.891626 c -0.678,0.023 -1.472,0.838 -1.727,0.951 -0.269,0.118 -0.176,0.195 -0.018,0.136 0.338,-0.122 0.821,-0.625 1.485,-0.86 0.525,-0.186 0.492,0.235 0.692,0.212 0.093,-0.009 -0.042,-0.453 -0.432,-0.439 z m 0.153,0.648 c -0.055,0.013 0.061,0.294 -0.236,0.312 -0.641,0.036 -1.147,0.63 -1.537,0.806 -0.39,0.177 -0.469,0.172 -0.53,0.19 -0.051,0.014 -0.032,0.077 0.01,0.086 1.629,0.213 2.256,0.154 2.27,0.095 0.028,-0.108 -0.093,-0.163 -0.065,-0.235 0.06,-0.177 0.093,-0.512 0.023,-0.743 -0.028,-0.108 0.242,-0.036 0.242,-0.18 0,-0.078 -0.084,-0.354 -0.177,-0.331 z m -0.25,1.254 c -0.033,0.122 -0.757,0.068 -1.156,0.032 -0.093,-0.01 -0.251,-0.023 0.051,-0.2 0.236,-0.14 0.566,-0.371 0.993,-0.453 0.037,-0.004 0.102,0 0.121,0.082 0.0349,0.176626 0.0318,0.35865 -0.009,0.534 z m 2.131,2.269 c -0.126,0 -0.627,0.222 -0.817,0.34 -0.107,0.067 -0.618,0.375 -0.585,-0.114 0.014,-0.172 0.125,-0.593 0.125,-0.706 0,-0.177 -0.149,-0.104 -0.153,0 -0.005,0.244 -0.056,0.43 -0.107,0.715 -0.042,0.245 0.172,0.548 0.511,0.372 0.283,-0.145 0.664,-0.399 1.003,-0.462 0.088,-0.018 0.102,-0.14 0.018,-0.145 z m -9.443998,1.734 c -0.097,-0.036 -0.07,0.158 -0.2,0.136 -0.171,-0.027 -0.027,-0.177 -0.25,-0.408 -0.112,-0.113 -0.39,-0.163 -0.595,-0.484 -0.325,-0.508 -0.046,-1.635 0.428,-1.477 0.264,0.091 0.218,0.689 0.139,1.096 -0.051,0.25 0.348,0.371 0.385,0.285 0.061,-0.144 -0.148,-0.13 -0.195,-0.267 -0.074,-0.203 0.488,-1.028 -0.246,-1.268 -0.534,-0.172 -0.887,0.485 -0.822,1.21 0.056,0.61 0.474,0.864 0.711,0.95 0.325,0.118 0.079,0.548 0.515,0.548 0.19,0 0.232,-0.294 0.13,-0.33 z m 4.280998,-13.594 c 0,0 0.046,0 0.065,-0.018 l 0.905,-1.118001 c 0.0236,-0.02903 0.0119,-0.0726 -0.023,-0.086 l -0.153,-0.06 c -0.0235,-0.0083 -0.0497,-6.38e-4 -0.065,0.019 l -0.91,1.123 c -0.024,0.031 -0.01,0.072 0.028,0.086 l 0.157,0.054 z m -1.681,-0.452 c 0.051,0.008 0.102,0.017 0.158,0.031 0.028,0.005 0.056,-0.01 0.065,-0.032 l 0.529,-1.276999 c 0.0158,-0.03212 -0.006,-0.06995 -0.042,-0.072 -0.06,-0.014 -0.116,-0.023 -0.176,-0.036 -0.014,0 -0.032,0.004 -0.037,0.018 -0.065,0.162999 -0.437,1.055 -0.539,1.299999 -0.014,0.031 0.01,0.067 0.042,0.072 v -0.005 z m -1.866,-0.182 h 0.158 c 0.027,0 0.055,-0.022 0.055,-0.05 l 0.13,-1.358 c 0,-0.032 -0.023,-0.059 -0.055,-0.059 h -0.158 c -0.028,0 -0.056,0.023 -0.056,0.05 l -0.13,1.358 c 0,0.032 0.023,0.06 0.056,0.06 z m -1.810998,0.136 c 0.051,-0.009 0.102,-0.018 0.158,-0.023 0.032,-0.004 0.055,-0.036 0.046,-0.063 l -0.265,-1.34 c -0.004,-0.027 -0.032,-0.05 -0.065,-0.046 -0.051,0.01 -0.106,0.014 -0.157,0.023 -0.0302,0.0046 -0.0512,0.03269 -0.047,0.063 l 0.265,1.336 c 0.004,0.027 0.032,0.05 0.065,0.046 z m -1.857,0.412 c 0.014,0.02382 0.0425,0.03497 0.069,0.027 0.051,-0.018 0.103,-0.031 0.149,-0.05 0.032,-0.009 0.046,-0.045 0.032,-0.076 l -0.626,-1.231999 c -0.014,-0.027 -0.042,-0.036 -0.07,-0.027 l -0.149,0.054 c -0.032,0.01 -0.046,0.045 -0.032,0.077 z m -1.727,0.779 c 0,0 0.046,0.023 0.069,0.013 0.047,-0.027 0.093,-0.05 0.139,-0.077 0.033,-0.018 0.042,-0.058 0.014,-0.086 l -0.937,-1.045001 c 0,0 -0.047,-0.022 -0.07,-0.013 -0.0465,0.02678 -0.0928,0.05378 -0.139,0.081 -0.033,0.018 -0.037,0.06 -0.014,0.086 l 0.938,1.042 z m -1.611,1.109 c 0,0 0.051,0.014 0.069,0 0.042,-0.036 0.084,-0.068 0.126,-0.104 0.027,-0.022 0.027,-0.068 0,-0.086 l -1.189,-0.806001 c 0,0 -0.051,-0.013 -0.07,0 l -0.12,0.104 c -0.0266,0.02328 -0.0247,0.06529 0.004,0.086 l 1.184,0.802 z m -1.403,1.409 c 0,0 0.051,0 0.065,-0.018 0.033,-0.041 0.07,-0.082 0.107,-0.123 0.0236,-0.02903 0.0119,-0.0726 -0.023,-0.086 l -1.365,-0.52 c -0.0233,-0.0085 -0.0494,-0.0013 -0.065,0.018 -0.033,0.04 -0.065,0.086 -0.102,0.125999 -0.024,0.028 -0.01,0.073 0.023,0.086 z m -2.581,1.457 1.462,0.2 c 0.024,0 0.047,-0.009 0.056,-0.027 l 0.079,-0.145 c 0.0187,-0.03425 -0.003,-0.07655 -0.042,-0.081 l -1.472,-0.2 c -0.0243,-8.17e-4 -0.0472,0.01138 -0.06,0.032 -0.023,0.05 -0.051,0.095 -0.074,0.145 -0.019,0.032 0.004,0.072 0.042,0.077 h 0.009 z m -0.799,2.165 1.491,-0.14 c 0,0 0.041,-0.018 0.046,-0.04 0.019,-0.055 0.033,-0.105 0.051,-0.16 0.014,-0.035 -0.018,-0.076 -0.06,-0.072 l -1.5,0.14 c -0.023,0 -0.042,0.019 -0.051,0.041 -0.014,0.055 -0.028,0.11 -0.042,0.159 -0.009,0.03763 0.0227,0.0724 0.061,0.068 z m 1.133,1.73 c 0.005,-0.054 0.014,-0.113 0.019,-0.167 0.006,-0.0419 -0.0354,-0.07473 -0.075,-0.06 l -1.453,0.494 c 0,0 -0.037,0.027 -0.037,0.05 0,0.054 -0.009,0.113 -0.009,0.168 0,0.04 0.037,0.068 0.074,0.054 l 1.444,-0.49 c 0,0 0.037,-0.022 0.037,-0.044 z m -0.037,1.934 c 0,-0.06 -0.009,-0.118 -0.014,-0.177 0,-0.04 -0.051,-0.068 -0.088,-0.045 l -1.319,0.842 c 0,0 -0.027,0.031 -0.023,0.054 0.009,0.06 0.014,0.113 0.023,0.168 0.005,0.04 0.051,0.059 0.089,0.036 l 1.304,-0.838 c 0,0 0.028,-0.031 0.023,-0.05 z m 0.33,1.938 c -0.014,-0.06 -0.033,-0.118 -0.047,-0.177 -0.009,-0.045 -0.065,-0.059 -0.097,-0.023 l -1.073,1.15 c 0,0 -0.018,0.037 -0.014,0.055 0.019,0.054 0.038,0.109 0.061,0.167 0.014,0.041 0.065,0.05 0.097,0.018 l 1.059,-1.136 c 0,0 0.018,-0.032 0.014,-0.05 z m 0.548,1.716 -0.757,1.404 c 0,0 -0.009,0.036 0,0.054 0.032,0.054 0.065,0.104 0.093,0.159 0.023,0.036 0.079,0.036 0.097,0 l 0.748,-1.386 c 0,0 0.009,-0.036 0,-0.05 -0.028,-0.059 -0.061,-0.113 -0.089,-0.172 -0.018,-0.04 -0.078,-0.04 -0.102,0 l 0.01,-0.01 z m 1.063,1.576 c -0.028,-0.037 -0.089,-0.027 -0.102,0.018 l -0.404,1.625 c 0,0 0,0.037 0.013,0.05 0.042,0.05 0.084,0.095 0.126,0.14 0.032,0.032 0.088,0.019 0.097,-0.022 l 0.4,-1.608 c 0,0 0,-0.031 -0.01,-0.045 -0.041,-0.054 -0.083,-0.104 -0.12,-0.158 z"
     fill="#12120D"
     id="path5"
     style="fill:#ffdb70;fill-opacity:1"
     sodipodi:nodetypes="ccccccccccccccscccccccccccscccccccccccccccccsccccccccccccccccccccccccsccsscccccccccccccccccccccccccccccccccccccccccccccccccccccccccccccccccccccccccccccssccsccccccccccccccccccccccccccccccccccccccccc" />
  <defs
     id="defs11">
    <linearGradient
       id="xen4ytwv1a"
       x1="123.413"
       y1="2.9119999"
       x2="141.09801"
       y2="28.187"
       gradientUnits="userSpaceOnUse"
       gradientTransform="translate(-71.008498,35.370626)">
      <stop
         stop-color="#97133F"
         id="stop6" />
      <stop
         offset=".38"
         stop-color="#8C4D74"
         id="stop7" />
      <stop
         offset="1"
         stop-color="#336DA0"
         id="stop8" />
    </linearGradient>
    <linearGradient
       id="vgmjnx320b"
       x1="120.516"
       y1="4.941"
       x2="138.201"
       y2="30.211"
       gradientUnits="userSpaceOnUse"
       gradientTransform="translate(-71.008498,35.370626)">
      <stop
         stop-color="#97133F"
         id="stop9" />
      <stop
         offset=".38"
         stop-color="#8C4D74"
         id="stop10" />
      <stop
         offset="1"
         stop-color="#336DA0"
         id="stop11" />
    </linearGradient>
  </defs>
  <rect
     style="fill:#ffdb70;fill-opacity:1;stroke:#ffdb6e;stroke-width:0;stroke-linecap:round;stroke-linejoin:round;stroke-miterlimit:1;stroke-dasharray:none;stroke-dashoffset:0;paint-order:normal"
     id="rect11"
     width="0.5"
     height="29.049999"
     x="81.591507"
     y="35.438625"
     ry="0.25043103"
     rx="0.25" />
  <path
     d="m 1.783,66.229376 1.694,4.669 1.686,-4.669 h 1.786 v 6.44 H 5.585 v -1.762 l 0.135,-3.038 -1.783,4.8 H 3.004 l -1.778,-4.796 0.134,3.034 v 1.761 H 0 v -6.439 z m 10.627,5.113 h -2.386 l -0.455,1.326 h -1.45 l 2.456,-6.439 h 1.258 l 2.47,6.44 h -1.448 l -0.46,-1.327 h 0.014 z m -2.02,-1.073 h 1.649 l -0.831,-2.41 -0.822,2.41 z m 7.369,-1.82 1.24,-2.22 h 1.564 l -1.922,3.193 1.973,3.246 h -1.583 l -1.267,-2.255 -1.268,2.255 h -1.583 l 1.973,-3.246 -1.922,-3.193 h 1.565 l 1.24,2.22 z m 8.139,1.95 v 2.27 h -1.36 v -6.44 h 2.576 c 0.497,0 0.934,0.09 1.31,0.268 0.376002,0.176 0.664002,0.43 0.868002,0.756 0.204,0.326 0.302,0.697 0.302,1.114 0,0.63 -0.223,1.127 -0.664,1.494 -0.441002,0.367 -1.054002,0.548 -1.839002,0.548 h -1.192 v -0.01 z m 0,-1.072 h 1.216 c 0.358,0 0.637,-0.082 0.822,-0.25 0.186,-0.167 0.284,-0.402 0.284,-0.706 0,-0.303 -0.098,-0.57 -0.288,-0.765 -0.19,-0.195 -0.455,-0.294 -0.79,-0.299 h -1.249 v 2.02 z m 6.454002,2.277 h 2.887 v 1.064 h -4.248 v -6.439 h 1.36 v 5.375 z m 7.944,-0.262 h -2.387 l -0.455,1.326 h -1.448 l 2.456,-6.439 h 1.258 l 2.47,6.44 h -1.449 l -0.46,-1.327 z m -2.02,-1.073 h 1.648 l -0.83,-2.41 -0.823,2.41 z m 10.373,2.4 h -1.361 l -2.647,-4.239 v 4.239 h -1.36 v -6.44 h 1.36 l 2.651,4.248 v -4.248 h 1.356 v 6.44 z m 6.834,-2.147 c -0.051,0.693 -0.316,1.236 -0.785,1.635 -0.469,0.398 -1.096,0.598 -1.871,0.598 -0.845,0 -1.514,-0.277 -1.997,-0.834 -0.482,-0.557 -0.728,-1.317 -0.728,-2.286 v -0.394 c 0,-0.62 0.111,-1.164 0.334,-1.635 0.223,-0.47 0.543,-0.833 0.961,-1.087 0.418,-0.253 0.9,-0.376 1.449,-0.376 0.761,0 1.374,0.2 1.838,0.598 0.464,0.399 0.734,0.956 0.808,1.676 h -1.36 c -0.033,-0.417 -0.154,-0.716 -0.358,-0.906 -0.204,-0.19 -0.515,-0.28 -0.933,-0.28 -0.455,0 -0.794,0.158 -1.017,0.475 -0.223,0.317 -0.339,0.81 -0.348,1.476 v 0.484 c 0,0.698 0.107,1.205 0.325,1.526 0.218,0.322 0.557,0.48 1.021,0.48 0.423,0 0.734,-0.095 0.943,-0.28 0.209,-0.186 0.325,-0.476 0.357,-0.87 h 1.36 z m 3.426,-0.435 -0.706,0.743 v 1.838 h -1.36 v -6.439 h 1.36 v 2.921 l 0.6,-0.801 1.68,-2.12 h 1.672 l -2.345,2.862 2.414,3.577 h -1.62 l -1.695,-2.579 z m 8.515,2.582 h -1.36 v -6.44 h 1.36 z m 7.09,0 h -1.36 l -2.647,-4.239 v 4.239 h -1.36 v -6.44 h 1.36 l 2.651,4.248 v -4.248 h 1.356 z m 5.079,-1.69 c 0,-0.249 -0.093,-0.443 -0.274,-0.575 -0.18,-0.13 -0.506,-0.276 -0.98,-0.425 -0.38472,-0.11398 -0.7588,-0.2612 -1.118,-0.44 -0.748,-0.393 -1.124,-0.928 -1.124,-1.598 0,-0.349 0.102,-0.657 0.302,-0.933 0.2,-0.276 0.487,-0.484 0.868,-0.638 0.38,-0.154 0.799,-0.231 1.268,-0.231 0.469,0 0.891,0.081 1.258,0.249 0.367,0.167 0.655,0.403 0.859,0.706 0.204,0.304 0.306,0.648 0.306,1.037 h -1.36 c 0,-0.294 -0.098,-0.525 -0.288,-0.688 -0.19,-0.163 -0.46,-0.245 -0.803,-0.245 -0.344,0 -0.59,0.068 -0.776,0.204 -0.17882,0.12255 -0.28345,0.32729 -0.278,0.544 0,0.208 0.107,0.385 0.325,0.525 0.218,0.14 0.534,0.276 0.956,0.398 0.776,0.227 1.337,0.508 1.69,0.847 0.353,0.34 0.53,0.756 0.53,1.254 0,0.557 -0.219,0.997 -0.65,1.314 -0.432,0.317 -1.013,0.475 -1.746,0.475 -0.506,0 -0.97,-0.09 -1.388,-0.272 -0.418,-0.18 -0.734,-0.43 -0.957,-0.747 -0.22322,-0.3212 -0.33876,-0.70495 -0.33,-1.096 h 1.366 c 0,0.711 0.436,1.065 1.304,1.065 0.325,0 0.576,-0.064 0.757,-0.19 0.17855,-0.12052 0.28217,-0.32473 0.274,-0.54 h 0.01 z m 7.716,-3.676 h -2.023 v 5.365 h -1.36 v -5.365 h -1.997 v -1.074 h 5.376 v 1.074 h 0.005 z m 2.69,5.366 h -1.361 v -6.44 h 1.36 v 6.44 z m 6.56,-5.366 h -2.025 v 5.365 h -1.36 v -5.365 h -1.997 v -1.074 h 5.377 v 1.074 h 0.004 z m 6.234998,-1.074 v 4.243 c 0,0.707 -0.228,1.264 -0.678,1.671 -0.45,0.408 -1.068,0.616 -1.852,0.616 -0.784998,0 -1.383998,-0.2 -1.838998,-0.598 -0.455,-0.398 -0.682,-0.946 -0.692,-1.639 v -4.288 h 1.36 v 4.247 c 0,0.421 0.103,0.73 0.312,0.924 0.209,0.195 0.492,0.29 0.858998,0.29 0.766,0 1.151,-0.394 1.165,-1.177 v -4.284 h 1.365 z m 6.551,1.074 h -2.024 v 5.365 h -1.361 v -5.365 h -1.996 v -1.074 h 5.376 v 1.074 z m 5.209,2.576 h -2.609 v 1.725 h 3.064 v 1.064 h -4.424 v -6.439 H 115 v 1.074 h -3.055 v 1.535 h 2.609 z m -109.025,7.744 H 3.607 v 1.883 H 3.259 v -4.025 h 2.558 v 0.285 H 3.612 v 1.567 h 1.922 v 0.285 z m 4.476,0.086 c 0,0.37 -0.065,0.697 -0.195,0.973 -0.13,0.28 -0.32,0.494 -0.562,0.648 -0.246,0.15 -0.524,0.226 -0.845,0.226 -0.482,0 -0.872,-0.168 -1.17,-0.503 -0.297,-0.335 -0.445,-0.787 -0.445,-1.363 v -0.416 c 0,-0.367 0.065,-0.693 0.2,-0.974 0.134,-0.28 0.32,-0.502 0.566,-0.652 0.241,-0.154 0.524,-0.226 0.84,-0.226 0.316,0 0.599,0.077 0.84,0.222 0.242,0.15 0.432,0.362 0.562,0.634 0.13,0.271 0.2,0.588 0.21,0.946 v 0.485 z m -0.348,-0.435 c 0,-0.485 -0.111,-0.865 -0.339,-1.137 -0.223,-0.276 -0.534,-0.412 -0.924,-0.412 -0.39,0 -0.687,0.136 -0.915,0.412 -0.227,0.276 -0.343,0.661 -0.343,1.155 v 0.421 c 0,0.476 0.111,0.856 0.339,1.132 0.227,0.28 0.534,0.417 0.924,0.417 0.39,0 0.7,-0.136 0.924,-0.412 0.223,-0.277 0.33,-0.662 0.33,-1.15 v -0.426 z m 3.204,0.552 h -1.198 v 1.68 H 11.31 v -4.025 h 1.342 c 0.44,0 0.784,0.104 1.03,0.312 0.246,0.208 0.372,0.498 0.372,0.874 0,0.258 -0.08,0.485 -0.232,0.684 -0.158185,0.19947 -0.376782,0.34228 -0.623,0.407 l 1.031,1.712 v 0.036 h -0.371 z m -1.198,-0.285 h 1.068 c 0.292,0 0.529,-0.082 0.705,-0.245 0.17599,-0.16088 0.272809,-0.39069 0.265,-0.629 0,-0.285 -0.093,-0.503 -0.279,-0.661 -0.185,-0.159 -0.445,-0.236 -0.78,-0.236 h -0.984 v 1.77 h 0.005 z m 6.082,-2.06 1.523,3.55 1.527,-3.55 h 0.465 v 4.025 h -0.348 v -1.752 l 0.027,-1.798 -1.536,3.55 h -0.27 l -1.532,-3.537 0.028,1.771 v 1.762 h -0.348 v -4.026 h 0.464 z m 7.275,2.893 h -1.87 l -0.428,1.132 h -0.367 l 1.56,-4.025 h 0.33 l 1.56,4.025 h -0.362 l -0.427,-1.132 z m -1.764,-0.285 h 1.653 l -0.827,-2.192 z m 6.031002,-2.323 H 27.871 v 3.736 h -0.348 v -3.736 h -1.411 v -0.285 h 3.175002 z m 4.16,3.736 h -0.352 v -1.93 h -2.359 v 1.93 h -0.348 v -4.026 h 0.348 v 1.807 h 2.359 v -1.807 h 0.352 z m 3.762,-1.929 h -1.932 v 1.639 h 2.219 v 0.285 h -2.568 v -4.025 h 2.554 v 0.285 h -2.205 v 1.521 h 1.931 v 0.295 z m 1.921,-2.092 1.523,3.55 1.528,-3.55 h 0.464 v 4.025 h -0.348 v -1.752 l 0.028,-1.798 -1.537,3.55 h -0.27 l -1.532,-3.537 0.028,1.771 v 1.762 h -0.348 v -4.026 h 0.464 z m 7.271,2.893 h -1.87 l -0.428,1.132 h -0.367 l 1.56,-4.025 h 0.33 l 1.56,4.025 h -0.362 l -0.428,-1.132 z m -1.764,-0.285 h 1.653 l -0.827,-2.192 z m 6.031,-2.323 h -1.416 v 3.736 h -0.348 v -3.736 h -1.412 v -0.285 h 3.176 z m 1.527,3.736 h -0.348 v -4.026 h 0.348 z m 4.476,-1.255 c -0.046,0.426 -0.204,0.747 -0.464,0.974 -0.265,0.226 -0.613,0.34 -1.054,0.34 -0.306,0 -0.576,-0.077 -0.812,-0.222 -0.23976,-0.15321 -0.42899,-0.37375 -0.544,-0.634 -0.13482,-0.29399 -0.20148,-0.61464 -0.195,-0.938 v -0.52 c 0,-0.358 0.065,-0.675 0.195,-0.951 0.13,-0.277 0.311,-0.49 0.553,-0.639 0.241,-0.15 0.52,-0.226 0.83,-0.226 0.442,0 0.79,0.117 1.046,0.349 0.255,0.23 0.404,0.552 0.445,0.964 h -0.353 c -0.088,-0.684 -0.469,-1.023 -1.142,-1.023 -0.376,0 -0.673,0.135 -0.896,0.407 -0.223,0.272 -0.334,0.652 -0.334,1.132 v 0.494 c 0,0.466 0.107,0.833 0.325,1.114 0.218,0.276 0.51,0.416 0.877,0.416 0.367,0 0.641,-0.086 0.827,-0.253 0.186,-0.172 0.302,-0.426 0.343,-0.765 h 0.353 z m 3.618,0.267 c 0.008,-0.20514 -0.0815,-0.40201 -0.242,-0.53 -0.163,-0.13 -0.455,-0.253 -0.883,-0.37 -0.427,-0.118 -0.738,-0.245 -0.933,-0.386 -0.278,-0.194 -0.418,-0.452 -0.418,-0.77 0,-0.316 0.13,-0.556 0.39,-0.751 0.26,-0.19 0.59,-0.29 0.999,-0.29 0.274,0 0.52,0.05 0.733,0.154 0.218,0.104 0.386,0.245 0.502,0.43 0.116,0.186 0.176,0.39 0.176,0.616 h -0.353 c 0.009,-0.25367 -0.097,-0.49784 -0.288,-0.665 -0.195,-0.168 -0.45,-0.25 -0.775,-0.25 -0.325,0 -0.566,0.068 -0.752,0.209 -0.17798,0.12109 -0.28289,0.32377 -0.279,0.539 0,0.203 0.084,0.37 0.251,0.502 0.167,0.131 0.436,0.245 0.808,0.34 0.371,0.095 0.65,0.2 0.84,0.308 0.19,0.104 0.334,0.23 0.432,0.38 0.098,0.15 0.144,0.322 0.144,0.52 0,0.318 -0.13,0.571 -0.39,0.762 -0.26,0.19 -0.604,0.285 -1.026,0.285 -0.293,0 -0.557,-0.05 -0.799,-0.154 -0.22153,-0.0853 -0.41336,-0.23332 -0.552,-0.426 -0.1269,-0.18533 -0.19328,-0.40541 -0.19,-0.63 h 0.348 c 0,0.286 0.106,0.508 0.325,0.671 0.218,0.163 0.506,0.244 0.868,0.244 0.32,0 0.58,-0.067 0.775,-0.208 0.18574,-0.11981 0.29652,-0.32699 0.293,-0.548 l -0.005,0.018 z m 3.811,0.988 h -0.348 v -4.026 h 0.348 z m 4.624,0 h -0.348 l -2.373,-3.446 v 3.446 h -0.352 v -4.026 h 0.353 l 2.372,3.446 v -3.446 h 0.348 z m 6.018,-3.736 h -1.417 v 3.736 h -0.348 v -3.736 h -1.411 v -0.285 h 3.175 v 0.285 z m 4.159,3.736 h -0.352 v -1.93 h -2.36 v 1.93 h -0.348 v -4.026 h 0.348 v 1.807 h 2.359 v -1.807 h 0.352 v 4.026 z m 3.761,-1.929 h -1.931 v 1.639 h 2.22 v 0.285 h -2.568 v -4.025 h 2.553 v 0.285 h -2.205 v 1.521 h 1.931 z m 5.641,0.941 c 0.009,-0.20497 -0.0808,-0.4018 -0.241,-0.53 -0.162,-0.13 -0.455,-0.253 -0.882,-0.37 -0.427,-0.118 -0.738,-0.245 -0.933,-0.386 -0.279,-0.194 -0.418,-0.452 -0.418,-0.77 0,-0.316 0.13,-0.556 0.39,-0.751 0.26,-0.19 0.59,-0.29 0.998,-0.29 0.274,0 0.52,0.05 0.734,0.154 0.218,0.104 0.385,0.245 0.501,0.43 0.116,0.186 0.177,0.39 0.177,0.616 h -0.353 c 0.009,-0.25367 -0.097,-0.49784 -0.288,-0.665 -0.195,-0.168 -0.45,-0.25 -0.776,-0.25 -0.325,0 -0.566,0.068 -0.752,0.209 -0.1776,0.12132 -0.28211,0.32396 -0.278,0.539 0,0.203 0.083,0.37 0.25,0.502 0.168,0.131 0.437,0.245 0.808,0.34 0.372,0.095 0.65,0.2 0.84,0.308 0.191,0.104 0.335,0.23 0.432,0.38 0.098,0.15 0.144,0.322 0.144,0.52 0,0.318 -0.13,0.571 -0.39,0.762 -0.26,0.19 -0.603,0.285 -1.026,0.285 -0.292,0 -0.557,-0.05 -0.798,-0.154 -0.22189,-0.0851 -0.41409,-0.23317 -0.553,-0.426 -0.1269,-0.18533 -0.19328,-0.40541 -0.19,-0.63 h 0.348 c 0,0.286 0.107,0.508 0.325,0.671 0.218,0.163 0.506,0.244 0.868,0.244 0.32,0 0.58,-0.067 0.776,-0.208 0.18536,-0.12005 0.29573,-0.32719 0.292,-0.548 z m 4.458,-0.267 c -0.047,0.426 -0.205,0.747 -0.465,0.974 -0.264,0.226 -0.613,0.34 -1.054,0.34 -0.306,0 -0.575,-0.077 -0.812,-0.222 -0.23939,-0.15336 -0.42826,-0.37388 -0.543,-0.634 -0.13482,-0.29399 -0.20148,-0.61464 -0.195,-0.938 v -0.52 c 0,-0.358 0.065,-0.675 0.195,-0.951 0.13,-0.277 0.31,-0.49 0.552,-0.639 0.242,-0.15 0.52,-0.226 0.831,-0.226 0.441,0 0.79,0.117 1.045,0.349 0.255,0.23 0.404,0.552 0.446,0.964 h -0.353 c -0.088,-0.684 -0.47,-1.023 -1.142,-1.023 -0.376,0 -0.674,0.135 -0.896,0.407 -0.223,0.272 -0.335,0.652 -0.335,1.132 v 0.494 c 0,0.466 0.107,0.833 0.325,1.114 0.219,0.276 0.511,0.416 0.878,0.416 0.367,0 0.64,-0.086 0.826,-0.253 0.186,-0.172 0.302,-0.426 0.344,-0.765 h 0.353 z m 1.708,1.255 h -0.348 v -4.026 h 0.348 z m 3.83,-1.929 h -1.93 v 1.639 h 2.22 v 0.285 h -2.57 v -4.025 h 2.553 v 0.285 h -2.203 v 1.521 h 1.932 v 0.295 z m 4.531998,1.929 h -0.348 l -2.373,-3.446 v 3.446 h -0.352998 v -4.026 H 100.11 l 2.373,3.446 v -3.446 h 0.348 z m 4.406,-1.255 c -0.046,0.426 -0.204,0.747 -0.464,0.974 -0.265,0.226 -0.613,0.34 -1.054,0.34 -0.306,0 -0.576,-0.077 -0.813,-0.222 -0.23904,-0.15376 -0.42781,-0.37417 -0.543,-0.634 -0.13482,-0.29399 -0.20148,-0.61464 -0.195,-0.938 v -0.52 c 0,-0.358 0.065,-0.675 0.195,-0.951 0.13,-0.277 0.311,-0.49 0.553,-0.639 0.241,-0.15 0.52,-0.226 0.831,-0.226 0.441,0 0.789,0.117 1.044,0.349 0.256,0.23 0.404,0.552 0.446,0.964 h -0.353 c -0.088,-0.684 -0.469,-1.023 -1.142,-1.023 -0.376,0 -0.673,0.135 -0.896,0.407 -0.223,0.272 -0.334,0.652 -0.334,1.132 v 0.494 c 0,0.466 0.107,0.833 0.325,1.114 0.218,0.276 0.511,0.416 0.877,0.416 0.367,0 0.641,-0.086 0.827,-0.253 0.185,-0.172 0.302,-0.426 0.343,-0.765 h 0.353 z m 3.561,-0.674 h -1.931 v 1.639 h 2.219 v 0.285 h -2.567 v -4.025 h 2.553 v 0.285 h -2.205 v 1.521 h 1.931 z m 3.794,0.941 c 0.009,-0.20517 -0.0813,-0.40211 -0.242,-0.53 -0.162,-0.13 -0.455,-0.253 -0.882,-0.37 -0.427,-0.118 -0.738,-0.245 -0.933,-0.386 -0.279,-0.194 -0.418,-0.452 -0.418,-0.77 0,-0.316 0.13,-0.556 0.39,-0.751 0.26,-0.19 0.59,-0.29 0.998,-0.29 0.274,0 0.52,0.05 0.734,0.154 0.218,0.104 0.385,0.245 0.501,0.43 0.116,0.186 0.177,0.39 0.177,0.616 h -0.353 c 0.009,-0.25364 -0.0971,-0.49775 -0.288,-0.665 -0.195,-0.168 -0.451,-0.25 -0.776,-0.25 -0.325,0 -0.566,0.068 -0.752,0.209 -0.17731,0.12157 -0.28175,0.32404 -0.278,0.539 0,0.203 0.083,0.37 0.25,0.502 0.168,0.131 0.437,0.245 0.808,0.34 0.372,0.095 0.65,0.2 0.841,0.308 0.19,0.104 0.334,0.23 0.431,0.38 0.098,0.15 0.144,0.322 0.144,0.52 0,0.318 -0.13,0.571 -0.39,0.762 -0.26,0.19 -0.603,0.285 -1.026,0.285 -0.292,0 -0.557,-0.05 -0.798,-0.154 -0.22183,-0.0852 -0.41401,-0.23325 -0.553,-0.426 -0.12672,-0.18541 -0.19308,-0.40544 -0.19,-0.63 h 0.348 c 0,0.286 0.107,0.508 0.325,0.671 0.218,0.163 0.506,0.244 0.868,0.244 0.321,0 0.581,-0.067 0.776,-0.208 0.18551,-0.11992 0.29593,-0.32714 0.292,-0.548 z"
     fill="#12120D"
     id="path6"
     style="fill:#ffdb70;fill-opacity:1"
     sodipodi:nodetypes="ccccccccccccccccccccccccccccccccccccccccccccccccccscssssccccscsscccccccccccccccccccccccccccccccccccccccccscssccscccssscscscccccccccccccccccccccccccccccccccccccccsscsccccssccsccscsccccscccccccccccccccccccccccccccccccccscsscccscsccccccccccccccccccccccccccccccccccccccccccscssccscccccccscsscscscccccccssscccccccscccsccccccccccccccccccccccccccccccccccccccccccccccccccccccccccccccccccccccccccccccccccccccccccccccccccccccccccccccccccccccscccsccscccsssscsccccccccscscccccscccccsscscccccscccccccccccccccccccccccccccccccccccccccccccccccccccccccccccccscscccccsccccccscsccccsscccccscccsccscccscsscsccccccccccccccccccccccccccccccccccccscccsccscccsssscscccccccccccccccccccccscscccccsccccccscsccccssccc" />
</svg>
