<?xml version="1.0" encoding="UTF-8" standalone="no"?>
<svg
   version="1.1"
   width="66.944"
   height="66.944"
   id="svg27"
   sodipodi:docname="logo-cmu.svg"
   inkscape:version="1.4.2 (f4327f4, 2025-05-13)"
   xmlns:inkscape="http://www.inkscape.org/namespaces/inkscape"
   xmlns:sodipodi="http://sodipodi.sourceforge.net/DTD/sodipodi-0.dtd"
   xmlns="http://www.w3.org/2000/svg"
   xmlns:svg="http://www.w3.org/2000/svg">
  <defs
     id="defs27" />
  <sodipodi:namedview
     id="namedview27"
     pagecolor="#ffffff"
     bordercolor="#000000"
     borderopacity="0.25"
     inkscape:showpageshadow="2"
     inkscape:pageopacity="0.0"
     inkscape:pagecheckerboard="0"
     inkscape:deskcolor="#d1d1d1"
     inkscape:zoom="7.697479"
     inkscape:cx="27.281659"
     inkscape:cy="28.970524"
     inkscape:window-width="1472"
     inkscape:window-height="850"
     inkscape:window-x="-6"
     inkscape:window-y="-6"
     inkscape:window-maximized="1"
     inkscape:current-layer="svg27" />
  <style
     type="text/css"
     id="style1">
path {fill:#ab1727;}
</style>
  <g
     transform="matrix(1,0,0,-1,-505.77493,212.51994)"
     id="g27"
     style="fill:#ffdc70;fill-opacity:1">
    <path
       d="m 514.89873,201.00385 h -0.29265 c -0.015,-0.34049 -0.19604,-0.48775 -0.53559,-0.48775 -0.68192,0 -1.78499,0.8273 -2.95466,0.8273 -3.32798,0 -5.3409,-3.27826 -5.3409,-6.16633 0,-2.90682 1.91631,-5.77894 5.12891,-5.77894 1.94914,0 2.67983,0.92392 3.19854,0.92392 0.34143,0 0.53653,-0.42303 0.60125,-0.66503 h 0.24388 v 3.978 h -0.24388 l -0.0975,-0.55247 c -0.22793,-1.316 -1.4445,-3.3927 -3.53809,-3.3927 -1.85159,0 -2.56446,1.73715 -2.56446,5.68233 0,4.13746 0.9727,5.68045 2.6123,5.68045 1.85065,0 3.23043,-2.22303 3.49025,-3.88046 h 0.29265 v 3.83168 z"
       id="path1"
       style="fill:#ffdc70;fill-opacity:1" />
    <path
       d="m 523.75099,191.03492 h -0.28797 c 0,-0.4174 -0.17634,-0.89765 -0.56091,-0.89765 -0.28796,0 -0.36676,0.30391 -0.36676,0.8001 v 3.68442 c 0,1.82532 -1.71464,2.27462 -3.36362,2.27462 -1.60114,0 -2.77081,-0.78604 -2.77081,-1.68182 0,-0.56185 0.31985,-1.04116 1.04023,-1.04116 0.60875,0 0.97738,0.39958 0.97738,0.96144 0,0.76727 -0.79917,0.72037 -0.81699,0.99239 -0.0141,0.35268 0.9136,0.47931 1.45857,0.47931 1.19969,0 1.36102,-0.59 1.36102,-1.55237 v -1.34414 l -1.57019,-0.1285 c -1.45576,-0.11256 -3.04189,-0.49714 -3.04189,-2.16206 0,-1.39385 1.24846,-1.95571 2.48191,-1.95571 0.62376,0 1.72871,0.242 2.14612,1.00928 0.28796,-0.6716 0.88077,-1.00928 1.6002,-1.00928 1.04117,0 1.71371,0.62564 1.71371,1.57113 m -3.32986,0.52715 c -0.0319,-0.84888 -0.51402,-1.61615 -1.26534,-1.61615 -1.08901,0 -1.13591,0.99145 -1.13591,1.82438 0,0.85076 0.0947,1.41074 1.13591,1.52236 l 1.26534,0.1285 z"
       id="path2"
       style="fill:#ffdc70;fill-opacity:1" />
    <path
       d="m 523.84122,189.6573 h 4.78936 v 0.2889 h -1.47357 v 4.08681 c 0,1.23252 0.38457,2.09734 1.39384,2.54664 h 0.0638 c -0.27202,-0.28797 -0.38458,-0.5431 -0.38458,-0.94362 0,-0.62564 0.46431,-1.0421 1.08901,-1.0421 0.76915,0 1.2175,0.5581 1.2175,1.16873 0,0.77009 -0.51308,1.23439 -1.26534,1.23439 -1.02522,0 -1.81032,-0.70537 -2.11422,-1.50641 h -0.0319 v 1.63398 c -0.33673,-0.41553 -1.52141,-0.41553 -2.178,-0.41553 h -1.10589 v -0.28702 h 1.10589 v -6.47587 h -1.10589 v -0.2889 z"
       id="path3"
       style="fill:#ffdc70;fill-opacity:1" />
    <path
       d="m 530.78683,189.6573 h 4.25846 v 0.2889 h -0.94455 v 4.39072 c 0,0.81511 0.80104,1.98666 1.69682,1.98666 0.4643,0 0.94643,-0.19323 0.94643,-1.31319 v -5.06419 h -0.9136 v -0.2889 h 4.22657 v 0.2889 h -1.10495 v 4.47045 c 0,1.73058 -0.73632,2.48379 -2.25774,2.48379 -1.07118,0 -2.12923,-0.55998 -2.56164,-1.48859 h -0.0319 v 1.71277 c -0.33674,-0.41553 -1.51954,-0.41553 -2.17707,-0.41553 h -1.13684 v -0.28702 h 1.10495 v -6.47587 h -1.10495 v -0.2889 z"
       id="path4"
       style="fill:#ffdc70;fill-opacity:1" />
    <path
       d="m 542.39029,193.53203 h 4.42074 c -0.0159,1.72965 -1.61803,3.39458 -3.29984,3.36456 -1.88817,0 -3.52402,-1.63491 -3.52402,-3.79603 0,-2.08233 1.52142,-3.63658 3.57279,-3.63658 1.96978,0 2.94716,1.21845 3.29891,2.80458 h -0.28797 c -0.35174,-1.49046 -1.28129,-2.41907 -2.53069,-2.41907 -1.48952,0 -1.64992,1.2494 -1.64992,2.33747 z m 0,0.28984 v 1.37603 c 0,1.07399 0.46525,1.40885 1.00928,1.40885 0.76727,0 1.00927,-0.52714 1.00927,-1.40885 v -1.37603 z"
       id="path5"
       style="fill:#ffdc70;fill-opacity:1" />
    <path
       d="m 554.76319,196.17462 c 0,0.56186 -0.60781,0.84888 -1.089,0.84888 -0.52715,0 -0.92767,-0.35268 -1.23346,-0.70443 -0.46524,0.3358 -1.10401,0.5778 -2.00072,0.5778 -1.34508,0 -2.7877,-0.88077 -2.7877,-2.33934 0,-0.87983 0.48119,-1.56831 1.33007,-1.95289 v -0.0309 c -0.6247,-0.0797 -1.60209,-0.51308 -1.60209,-1.84221 0,-0.79916 0.36863,-1.40885 1.04117,-1.60208 v -0.0309 c -0.64065,-0.17447 -1.37697,-0.81511 -1.37697,-1.58426 0,-1.18468 1.39385,-2.09828 3.17134,-2.09828 2.2249,0 3.68347,1.50547 3.68347,3.45836 0,1.55424 -0.76914,2.25773 -2.3384,2.22584 h -2.65919 c -0.40052,0 -0.94455,0.016 -0.94455,0.44742 0,0.40146 0.68942,0.83294 1.29723,0.83294 0.17634,0 0.35175,-0.0478 0.52903,-0.0947 0.19135,-0.0647 0.39958,-0.0976 0.65659,-0.0976 1.37696,0 2.8496,0.78603 2.8496,2.30651 0,0.51214 -0.23918,1.23158 -0.68754,1.61615 0.28796,0.28796 0.43241,0.64158 1.05711,0.72038 v -0.0319 c -0.33674,-0.1754 -0.43241,-0.38363 -0.43241,-0.70536 0,-0.36769 0.25607,-0.73632 0.73538,-0.73632 0.51402,0 0.80104,0.38551 0.80104,0.81698 m -6.08472,-7.09212 h 2.5138 c 1.60115,0 2.13017,-0.14351 2.13017,-1.12089 0,-1.16873 -1.44075,-2.2568 -3.05877,-2.2568 -1.44169,0 -2.22491,0.97644 -2.25868,1.74372 0,0.70536 0.24013,1.16967 0.67348,1.63397 m 2.78676,5.47503 c -0.0169,-1.96883 -0.43335,-2.08045 -1.00928,-2.08045 -0.64064,0 -0.97738,0.20823 -0.97738,2.13017 0,1.29536 0.14445,1.99979 0.97738,1.99979 0.75227,0 0.99239,-0.20824 1.00928,-2.04951"
       id="path6"
       style="fill:#ffdc70;fill-opacity:1" />
    <path
       d="m 555.01326,189.6573 h 4.42355 v 0.2889 h -1.10589 v 7.17842 c -0.33674,-0.41553 -1.52329,-0.41553 -2.17894,-0.41553 h -1.13872 v -0.28702 h 1.10495 v -6.47587 h -1.10495 z"
       id="path7"
       style="fill:#ffdc70;fill-opacity:1" />
    <path
       d="m 556.08134,199.1865 c 0,-0.63502 0.50746,-1.14434 1.14341,-1.14434 0.63596,0 1.14341,0.50932 1.14341,1.14434 0,0.63502 -0.50745,1.14247 -1.14341,1.14247 -0.63595,0 -1.14341,-0.50745 -1.14341,-1.14247"
       id="path8"
       style="fill:#ffdc70;fill-opacity:1" />
    <path
       d="m 561.8389,193.53203 h 4.41886 c -0.0141,1.72965 -1.61709,3.39458 -3.2989,3.36456 -1.88911,0 -3.52402,-1.63491 -3.52402,-3.79603 0,-2.08233 1.52423,-3.63658 3.57185,-3.63658 1.97071,0 2.94903,1.21845 3.29984,2.80458 h -0.28796 c -0.35175,-1.49046 -1.28035,-2.41907 -2.53069,-2.41907 -1.48859,0 -1.64898,1.2494 -1.64898,2.33747 z m 0,0.28984 v 1.37603 c 0,1.07399 0.4643,1.40885 1.00927,1.40885 0.76821,0 1.00834,-0.52714 1.00834,-1.40885 v -1.37603 z"
       id="path9"
       style="fill:#ffdc70;fill-opacity:1" />
    <path
       d="m 505.77498,173.48956 h 3.10567 v 0.28796 h -0.22418 c -0.86482,0 -1.20062,0.22418 -1.20062,1.52142 v 9.0769 h 0.0328 l 3.82511,-10.88628 h 0.43335 l 3.72944,10.69399 h 0.0319 v -10.40603 h -1.3779 v -0.28796 h 5.07545 v 0.28796 h -1.20063 v 10.69493 h 1.20063 v 0.28797 h -3.85794 l -2.7061,-7.73371 h -0.0319 l -2.65732,7.73371 h -4.09806 v -0.28797 h 1.21563 v -9.3189 c 0,-0.68848 -0.15946,-1.37603 -1.23158,-1.37603 h -0.0638 v -0.28796 z"
       id="path10"
       style="fill:#ffdc70;fill-opacity:1" />
    <path
       d="m 521.44828,177.36429 h 4.41979 c -0.015,1.72965 -1.61709,3.39458 -3.2989,3.36456 -1.88911,0 -3.52402,-1.63491 -3.52402,-3.79603 0,-2.08233 1.52236,-3.63658 3.57373,-3.63658 1.9679,0 2.94716,1.21845 3.29797,2.80458 h -0.28796 c -0.35081,-1.49046 -1.28036,-2.41907 -2.53069,-2.41907 -1.49047,0 -1.64992,1.2494 -1.64992,2.33747 z m 0,0.28984 v 1.37603 c 0,1.07399 0.4643,1.40885 1.00927,1.40885 0.76915,0 1.00928,-0.52714 1.00928,-1.40885 v -1.37603 z"
       id="path11"
       style="fill:#ffdc70;fill-opacity:1" />
    <path
       d="m 525.91056,173.48956 h 4.42355 v 0.28796 h -1.10589 v 11.47065 c -0.2889,-0.48025 -1.1706,-0.48025 -2.30838,-0.48025 h -1.00928 v -0.2889 h 1.10683 v -10.7015 h -1.10683 z"
       id="path12"
       style="fill:#ffdc70;fill-opacity:1" />
    <path
       d="m 530.61466,173.48956 h 4.42355 v 0.28796 h -1.10495 v 11.47065 c -0.28984,-0.48025 -1.17061,-0.48025 -2.30838,-0.48025 h -1.01022 v -0.2889 h 1.10495 v -10.7015 h -1.10495 z"
       id="path13"
       style="fill:#ffdc70;fill-opacity:1" />
    <path
       d="m 542.4787,177.01339 c 0,2.19302 -1.69682,3.71537 -3.81104,3.71537 -2.11329,0 -3.81198,-1.52235 -3.81198,-3.71537 0,-2.19489 1.69869,-3.71724 3.81198,-3.71724 2.11422,0 3.81104,1.52235 3.81104,3.71724 m -2.4988,-1.72965 c 0,-1.2025 -0.49525,-1.69775 -1.31224,-1.69775 -0.81605,0 -1.31318,0.49525 -1.31318,1.69775 v 3.4593 c 0,1.19969 0.49713,1.69588 1.31318,1.69588 0.81699,0 1.31224,-0.49619 1.31224,-1.69588 z"
       id="path14"
       style="fill:#ffdc70;fill-opacity:1" />
    <path
       d="m 542.48836,173.48956 h 4.2594 v 0.2889 h -0.94361 v 4.39072 c 0,0.81511 0.80104,1.98666 1.69776,1.98666 0.46336,0 0.94455,-0.19323 0.94455,-1.31319 v -5.06419 h -0.91454 v -0.2889 h 4.22939 v 0.2889 h -1.10683 v 4.47045 c 0,1.73058 -0.73538,2.48379 -2.2568,2.48379 -1.07212,0 -2.12923,-0.55998 -2.56258,-1.48859 h -0.0309 v 1.71277 c -0.3358,-0.41553 -1.52142,-0.41553 -2.17801,-0.41553 h -1.13778 v -0.28702 h 1.10589 v -6.47587 h -1.10589 v -0.2889 z"
       id="path15"
       style="fill:#ffdc70;fill-opacity:1" />
    <path
       d="m 505.77493,171.8493 h 1.2494 v -7.25345 c 0,-2.48098 1.71089,-3.98645 4.32224,-3.98645 2.94528,0 4.22564,1.55425 4.22564,3.9086 v 5.98623 c 0,0.92861 0.25607,1.34507 0.83293,1.34507 h 0.41647 v 0.28797 h -3.16946 v -0.28797 h 0.4643 c 0.81699,0 1.07306,-0.41646 1.07306,-1.34507 v -6.08472 c 0,-2.1752 -1.31412,-3.23231 -2.86743,-3.23231 -2.33746,0 -2.80083,1.56832 -2.80083,3.61688 v 7.04522 h 1.2963 v 0.28797 h -5.04262 z"
       id="path16"
       style="fill:#ffdc70;fill-opacity:1" />
    <path
       d="m 516.19859,160.86641 h 4.25847 v 0.2889 h -0.94362 v 4.39072 c 0,0.81511 0.79823,1.98666 1.69494,1.98666 0.46618,0 0.9455,-0.19323 0.9455,-1.31319 v -5.06419 h -0.91173 v -0.2889 h 4.22657 v 0.2889 h -1.10307 v 4.47045 c 0,1.73058 -0.7382,2.48379 -2.25867,2.48379 -1.07212,0 -2.13017,-0.55998 -2.56165,-1.48859 h -0.0319 v 1.71277 c -0.33767,-0.41553 -1.52141,-0.41553 -2.17988,-0.41553 h -1.13497 v -0.28702 h 1.10308 v -6.47587 h -1.10308 v -0.2889 z"
       id="path17"
       style="fill:#ffdc70;fill-opacity:1" />
    <path
       d="m 525.70256,160.86641 h 4.42355 v 0.2889 h -1.10495 v 7.17842 c -0.33767,-0.41553 -1.52235,-0.41553 -2.18082,-0.41553 h -1.13778 v -0.28702 h 1.10777 v -6.47587 h -1.10777 z"
       id="path18"
       style="fill:#ffdc70;fill-opacity:1" />
    <path
       d="m 526.77065,170.39561 c 0,-0.63502 0.50933,-1.14434 1.14528,-1.14434 0.63408,0 1.14153,0.50932 1.14153,1.14434 0,0.63502 -0.50745,1.14247 -1.14153,1.14247 -0.63595,0 -1.14528,-0.50745 -1.14528,-1.14247"
       id="path19"
       style="fill:#ffdc70;fill-opacity:1" />
    <path
       d="m 533.37042,160.67309 h 0.43241 l 2.36936,5.60635 c 0.40052,0.89672 0.73632,1.32913 1.10495,1.34508 h 0.14539 v 0.2889 h -2.4988 v -0.2889 h 0.30578 c 0.46337,0 0.73538,-0.17541 0.73538,-0.59187 0,-0.25795 -0.0797,-0.60876 -0.27201,-1.05712 l -1.08901,-2.56258 -1.87409,4.21157 h 0.96143 v 0.2889 h -4.01927 v -0.2889 h 0.68848 z"
       id="path20"
       style="fill:#ffdc70;fill-opacity:1" />
    <path
       d="m 539.17881,164.74114 h 4.42074 c -0.015,1.72965 -1.61709,3.39458 -3.29797,3.36456 -1.89098,0 -3.52495,-1.63491 -3.52495,-3.79603 0,-2.08233 1.52235,-3.63658 3.57373,-3.63658 1.96884,0 2.94528,1.21845 3.29796,2.80458 h -0.28608 c -0.35456,-1.49046 -1.28223,-2.41907 -2.53163,-2.41907 -1.49046,0 -1.54111,1.2494 -1.54111,2.33747 z m 0,0.28984 v 1.37603 c 0,1.07399 0.46525,1.40885 1.01022,1.40885 0.76821,0 1.00739,-0.52714 1.00739,-1.40885 v -1.37603 z"
       id="path21"
       style="fill:#ffdc70;fill-opacity:1" />
    <path
       d="m 543.63697,160.86641 h 4.78843 v 0.2889 h -1.47264 v 4.08681 c 0,1.23252 0.38457,2.09734 1.39385,2.54664 h 0.0638 c -0.27202,-0.28797 -0.38457,-0.5431 -0.38457,-0.94362 0,-0.62564 0.46336,-1.0421 1.089,-1.0421 0.76915,0 1.21751,0.5581 1.21751,1.16873 0,0.77009 -0.51214,1.23439 -1.26629,1.23439 -1.02428,0 -1.80937,-0.70537 -2.11328,-1.50641 h -0.0319 v 1.63398 c -0.33674,-0.41553 -1.52142,-0.41553 -2.17801,-0.41553 h -1.10589 v -0.28702 h 1.10589 v -6.47587 h -1.10589 v -0.2889 z"
       id="path22"
       style="fill:#ffdc70;fill-opacity:1" />
    <path
       d="m 550.68013,160.67309 h 0.2889 c 0.0807,0.25795 0.33674,0.38551 0.65753,0.38551 0.41553,0 0.91173,-0.38551 1.80938,-0.38551 1.52235,0 2.56258,1.31412 2.56258,2.6273 0,1.95383 -1.34413,2.09828 -3.05971,2.33841 -0.89672,0.1285 -1.4567,0.27295 -1.4567,0.97832 0,0.75226 0.65659,1.19874 1.52142,1.19874 1.20062,0 1.8422,-0.94361 2.24366,-1.98478 h 0.25514 l -0.0966,2.27462 h -0.24012 c 0,-0.19228 -0.19041,-0.35268 -0.4962,-0.35268 -0.51308,0 -0.92954,0.35268 -1.66586,0.35268 -1.60115,0 -2.3853,-1.36289 -2.3853,-2.38717 0,-2.06639 1.56831,-2.24086 2.78488,-2.38531 1.15466,-0.14538 1.63491,-0.25607 1.63491,-0.99333 0,-0.84981 -0.70349,-1.37696 -1.57019,-1.37696 -1.21657,0 -2.2099,1.23251 -2.4988,2.40125 h -0.2889 v -2.69109 z"
       id="path23"
       style="fill:#ffdc70;fill-opacity:1" />
    <path
       d="m 556.28151,160.86641 h 4.42167 v 0.2889 h -1.10401 v 7.17842 c -0.33673,-0.41553 -1.52235,-0.41553 -2.17894,-0.41553 h -1.13872 v -0.28702 h 1.10683 v -6.47587 h -1.10683 z"
       id="path24"
       style="fill:#ffdc70;fill-opacity:1" />
    <path
       d="m 557.35138,170.39561 c 0,-0.63502 0.50558,-1.14434 1.14153,-1.14434 0.63689,0 1.14435,0.50932 1.14435,1.14434 0,0.63502 -0.50746,1.14247 -1.14435,1.14247 -0.63595,0 -1.14153,-0.50745 -1.14153,-1.14247"
       id="path25"
       style="fill:#ffdc70;fill-opacity:1" />
    <path
       d="m 561.33783,167.62377 v -5.12423 c 0,-1.52142 1.31318,-1.82626 1.76154,-1.82626 0.97738,0 1.63397,0.40052 2.1311,1.23345 l -0.20729,0.11256 c -0.19323,-0.28796 -0.45117,-0.67347 -0.85076,-0.67347 -0.41552,0 -0.62376,0.30484 -0.62376,0.83199 v 5.44596 h 1.47452 v 0.28702 h -1.47452 v 3.44335 h -0.2889 c 0,-1.69776 -1.15372,-3.44335 -2.77175,-3.44335 v -0.28702 z"
       id="path26"
       style="fill:#ffdc70;fill-opacity:1" />
    <path
       d="m 564.96887,167.6247 h 0.6716 l 3.07378,-7.12401 -0.0947,-0.63971 c -0.0647,-0.46524 -0.38552,-2.2915 -0.9136,-2.45002 v 0.0469 c 0.0638,0.22512 0.0807,0.39958 0.0807,0.54403 0,0.54497 -0.38363,0.96144 -1.05805,0.96144 -0.70349,0 -1.05523,-0.48119 -1.05523,-1.08901 0,-0.65659 0.60875,-1.12183 1.3113,-1.12183 1.26629,0 1.58614,1.39479 1.72965,2.06639 l 0.43335,1.95289 0.83294,2.08139 1.58426,3.57186 c 0.35362,0.81417 0.67253,1.19968 1.02522,1.19968 h 0.1285 v 0.2889 h -2.49692 v -0.2889 h 0.3358 c 0.5112,0 0.73632,-0.2889 0.73632,-0.56091 0,-0.31798 -0.20917,-0.84794 -0.46431,-1.45576 l -0.9286,-2.19395 -1.8741,4.21062 h 1.05711 v 0.2889 h -4.11495 v -0.2889 z"
       id="path27"
       style="fill:#ffdc70;fill-opacity:1" />
  </g>
</svg>
