<?xml version="1.0" encoding="UTF-8" standalone="no"?>
<!-- Created with Inkscape (http://www.inkscape.org/) -->

<svg
   version="1.1"
   id="svg1"
   width="136.33701"
   height="136.33701"
   viewBox="0 0 1363.37 1363.3701"
   sodipodi:docname="logo-gcg.svg"
   inkscape:version="1.4.2 (f4327f4, 2025-05-13)"
   xmlns:inkscape="http://www.inkscape.org/namespaces/inkscape"
   xmlns:sodipodi="http://sodipodi.sourceforge.net/DTD/sodipodi-0.dtd"
   xmlns="http://www.w3.org/2000/svg"
   xmlns:svg="http://www.w3.org/2000/svg">
  <sodipodi:namedview
     id="namedview1"
     pagecolor="#ffffff"
     bordercolor="#000000"
     borderopacity="0.25"
     inkscape:showpageshadow="2"
     inkscape:pageopacity="0.0"
     inkscape:pagecheckerboard="0"
     inkscape:deskcolor="#d1d1d1"
     inkscape:zoom="0.50389834"
     inkscape:cx="631.07967"
     inkscape:cy="442.54958"
     inkscape:window-width="1472"
     inkscape:window-height="850"
     inkscape:window-x="-6"
     inkscape:window-y="-6"
     inkscape:window-maximized="1"
     inkscape:current-layer="svg1" />
  <defs
     id="defs1" />
  <g
     id="g1"
     transform="translate(-1.963093,413.51592)">
    <path
       style="fill:#ffdb70;fill-opacity:1;stroke-width:1.98738"
       d="m 206.688,524.23504 c -3.82571,-1.10888 -14.55759,-4.21397 -23.84861,-6.90021 C 144.83221,506.34608 111.7423,486.18285 82.317194,456.08198 60.223335,433.48071 42.870769,409.54296 28.077345,381.25846 -10.101057,308.26274 -6.2865299,220.64686 38.659721,138.19187 64.526337,90.738933 108.27889,46.486777 150.42632,25.149023 187.29498,6.4837246 209.08755,1.7684075 258.28307,1.8117807 c 52.03931,0.045881 80.31,6.2689211 120.98761,26.6321913 35.11265,17.577443 59.69402,36.995884 90.74579,71.686088 4.08225,4.56058 18.31361,24.23643 20.50124,28.34441 2.59227,4.86779 1.9627,5.62779 -10.56432,12.75326 -20.89995,11.88807 -50.15471,28.3105 -62.10577,34.86366 -5.19204,2.84697 -10.3344,5.83827 -11.42746,6.64733 -6.49656,4.80864 -8.74559,3.60627 -18.96784,-10.14057 -27.38175,-36.82288 -72.52125,-59.21222 -119.52892,-59.28671 -64.92285,-0.10289 -121.05017,38.84346 -141.72935,98.34502 -28.249582,81.28435 14.9889,168.85071 95.39934,193.20231 40.14117,12.1564 77.81426,8.97117 115.26831,-9.74584 20.92652,-10.45767 43.05176,-30.25582 55.35723,-49.53486 l 3.68524,-5.77367 15.19491,8.22851 c 8.35721,4.52569 27.26829,14.97911 42.02462,23.22986 14.75633,8.25075 30.20997,16.80999 34.34143,19.02058 4.28363,2.29201 7.09822,5.09689 6.54947,6.52691 -5.35283,13.94922 -40.47892,55.06226 -61.50743,71.99084 -29.92387,24.08965 -78.1801,46.3886 -118.5004,54.75845 -17.27951,3.58695 -95.57366,4.07975 -107.31877,0.67549 z"
       id="path1" />
    <path
       style="fill:#ffdb70;fill-opacity:1;stroke-width:1.98738"
       d="m 367.66616,319.11043 c -42.32045,-25.33578 -75.68965,-44.85135 -76.69022,-44.85135 -0.56576,0 -4.31895,-2.23581 -8.34041,-4.96846 l -7.31175,-4.96846 h 59.08919 59.08919 v 33.78554 c 0,25.78088 -0.58858,33.75117 -2.48423,33.64047 -1.36633,-0.0798 -11.87462,-5.76677 -23.35177,-12.63774 z"
       id="path2" />
    <path
       style="fill:#ffdb70;fill-opacity:1;stroke-width:1.98738"
       d="m 746.26293,530.34512 c -27.47529,-1.60907 -39.66432,-3.84656 -62.33933,-11.44338 -62.9274,-21.08263 -106.16168,-62.61182 -131.35857,-126.17806 -14.39845,-36.3241 -20.74691,-74.80804 -20.68986,-125.42045 0.0666,-59.0383 8.8631,-99.24516 31.15768,-142.41424 22.1238,-42.83839 52.37196,-72.931331 94.61943,-94.133863 56.75065,-28.4811688 129.00876,-32.7778068 192.94835,-11.473162 22.4261,7.472368 74.52692,38.094678 74.52692,43.803272 0,1.612331 -27.67691,35.715339 -39.76029,48.991913 -1.09998,1.20861 -4.57097,5.3276 -7.71328,9.15331 -3.14233,3.82572 -8.28024,9.8949 -11.41756,13.48707 l -5.70425,6.53122 -11.42478,-7.65024 c -39.16577,-26.22616 -80.11092,-31.52959 -113.17896,-14.65955 -10.55174,5.3831 -28.18704,24.7926 -34.6698,38.15776 -5.88845,12.13993 -11.76579,31.75787 -15.75014,52.57236 -3.449,18.01773 -3.56581,96.58179 -0.16844,113.28092 8.28132,40.70526 15.30401,57.06263 32.51485,75.73419 16.21096,17.58682 31.52501,23.44503 61.19988,23.41133 28.28824,-0.0321 41.45798,-4.59651 72.0321,-24.96499 9.55849,-6.36784 18.24666,-11.57791 19.30709,-11.57791 1.06042,0 2.84798,1.71891 3.97234,3.81979 1.12436,2.10091 3.18091,5.00746 4.57011,6.459 1.38922,1.45157 5.62001,6.66367 9.40174,11.58244 3.78176,4.91878 7.36918,9.39039 7.97206,9.93693 5.64612,5.11839 35.62764,46.3249 34.74487,47.75323 -2.10906,3.41252 -33.5629,26.96804 -45.78937,34.29127 -43.37562,25.98052 -80.9605,34.34902 -139.00279,30.94984 z"
       id="path3" />
    <path
       style="fill:#ffdb70;fill-opacity:1;stroke-width:1.98738"
       d="m 1150.6957,530.36607 c -28.6177,-1.45073 -42.1039,-3.64252 -65.6363,-10.66727 -60.5886,-18.08657 -101.95764,-55.9514 -125.39447,-114.77272 -6.03846,-15.1552 -13.60813,-40.56256 -15.83777,-53.159 -15.37215,-86.84529 -7.04566,-163.09458 24.2702,-222.25291 14.0786,-26.59568 19.78621,-34.32208 41.45014,-56.111112 42.995,-43.243192 106.8832,-67.5176294 177.4049,-67.4052567 46.7384,0.074475 87.804,10.1322517 126.4481,30.9696617 17.1476,9.246186 45.1128,27.607805 47.2062,30.994997 0.6102,0.987324 -3.1615,6.445527 -8.3814,12.129338 -17.9978,19.596968 -58.4311,61.012512 -59.5656,61.012512 -0.6255,0 -4.9046,-2.59203 -9.5092,-5.76006 -44.2243,-30.42712 -93.7766,-37.693652 -132.4548,-19.42366 -48.1097,22.72505 -70.6525,89.01726 -63.7325,187.41919 5.1238,72.85987 16.0568,102.14794 43.8587,117.49091 21.4021,11.8112 59.513,11.8122 84.9607,0.002 l 8.4463,-3.91986 V 370.42837 323.9437 h -24.8044 c -28.0545,0 -25.2331,1.91119 -27.8724,-18.88016 -0.6938,-5.4653 -2.0635,-15.75002 -3.0438,-22.85492 -0.9803,-7.1049 -2.6987,-20.07259 -3.8185,-28.81708 -1.1199,-8.74449 -2.562,-18.35846 -3.2046,-21.36438 l -1.1684,-5.46531 h 102.5082 102.5083 l -0.063,123.71469 -0.063,123.7147 -9.3772,5.76769 c -25.6807,15.79545 -49.5544,26.54973 -79.9295,36.00546 -43.9553,13.68325 -74.0616,17.1943 -125.2052,14.60168 z"
       id="path4" />
  </g>
</svg>
