<?xml version="1.0" encoding="UTF-8" standalone="no"?>
<!-- Generator: Adobe Illustrator 19.1.0, SVG Export Plug-In . SVG Version: 6.00 Build 0)  -->

<svg
   version="1.1"
   id="Layer_1"
   x="0px"
   y="0px"
   viewBox="0 0 256 256"
   style="enable-background:new 0 0 256 256;"
   xml:space="preserve"
   sodipodi:docname="ORCID_iD.svg"
   inkscape:version="1.4.2 (f4327f4, 2025-05-13)"
   xmlns:inkscape="http://www.inkscape.org/namespaces/inkscape"
   xmlns:sodipodi="http://sodipodi.sourceforge.net/DTD/sodipodi-0.dtd"
   xmlns="http://www.w3.org/2000/svg"
   xmlns:svg="http://www.w3.org/2000/svg"><defs
   id="defs308" /><sodipodi:namedview
   id="namedview306"
   pagecolor="#ffffff"
   bordercolor="#000000"
   borderopacity="0.25"
   inkscape:showpageshadow="2"
   inkscape:pageopacity="0.0"
   inkscape:pagecheckerboard="0"
   inkscape:deskcolor="#d1d1d1"
   showgrid="false"
   inkscape:zoom="1.8975873"
   inkscape:cx="63.765182"
   inkscape:cy="138.07006"
   inkscape:window-width="1472"
   inkscape:window-height="850"
   inkscape:window-x="-6"
   inkscape:window-y="-6"
   inkscape:window-maximized="1"
   inkscape:current-layer="Layer_1" />
<style
   type="text/css"
   id="style293">
	.st0{fill:#A6CE39;}
	.st1{fill:#FFFFFF;}
</style>


<path
   style="fill:#ffdb70;fill-opacity:1;stroke-width:0.526985"
   d="M 109.08589,132.80021 V 79.57473 h 24.43577 c 26.91831,0 29.4932,0.216382 38.63078,3.246348 21.19583,7.028403 34.97606,26.815972 34.94573,50.179912 -0.0297,22.88741 -15.08944,43.05573 -37.40682,50.09603 -8.22101,2.59342 -12.44068,2.92218 -37.54987,2.92556 l -23.05559,0.003 z m 51.64452,38.7307 c 14.50382,-3.21846 24.45913,-12.13582 29.10163,-26.06744 1.57494,-4.72624 1.675,-5.48748 1.69898,-12.92675 0.0297,-9.19504 -0.61913,-12.30239 -4.01463,-19.22842 -3.19696,-6.52105 -8.95391,-12.17608 -15.75486,-15.475935 -8.77503,-4.257698 -11.36368,-4.671583 -30.9248,-4.944402 L 123.84147,92.65093 v 40.16756 40.16756 l 16.46828,-0.28905 c 12.56795,-0.22058 17.40436,-0.49676 20.42066,-1.16609 z"
   id="path12952" /><path
   style="fill:#ffdb70;fill-opacity:1;stroke-width:0.526985"
   d="M 71.669955,132.80021 V 80.101715 h 6.850805 6.850805 v 52.698495 52.6985 H 78.52076 71.669955 Z"
   id="path17381" /><path
   style="fill:#ffdb70;fill-opacity:1;stroke-width:0.526985"
   d="m 74.831865,65.502278 c -0.434762,-0.1582 -1.463792,-0.910193 -2.286733,-1.671097 -4.525359,-4.18422 -4.130595,-11.420078 0.801095,-14.683716 4.88531,-3.232945 10.976691,-1.600335 13.662369,3.661784 2.199926,4.310374 0.199439,9.942068 -4.377532,12.323465 -1.384022,0.720106 -6.207688,0.948674 -7.799199,0.369564 z"
   id="path17383" /></svg>
